<?xml version="1.0" encoding="UTF-8"?><svg id="Lag_2" xmlns="http://www.w3.org/2000/svg" viewBox="0 0 210.02 153.79"><defs><style>.cls-1{fill:#fff;}.cls-1,.cls-2{stroke:#fff;}.cls-1,.cls-2,.cls-3{stroke-miterlimit:10;}.cls-2{stroke-width:2px;}.cls-2,.cls-3{fill:none;}.cls-3{stroke:#2d5d89;stroke-width:4px;}.cls-4{fill:#2d5d89;stroke-width:0px;}</style></defs><g id="sailmore_Logo"><path class="cls-1" d="m151.5,58.51c-7.79,15.89-28.03,21.32-42.5,20-5.34-.49-9.64-1.87-12.5-3-.73-7.29-1.7-14.98-3-23-1.19-7.37-2.54-14.37-4-21,3.1,2.88,8.07,6.85,15,10,2.53,1.15,11.57,5.02,24,5,11.87-.02,21.01-3.59,26-6,.82,8.89-1.5,14.94-3,18Z"/><path class="cls-1" d="m148.5,110.51c-.91,2.98-1.82,5.87-4,9-4.44,6.36-10.83,8.97-14,10-2.66-1.42-6.39-3.25-11-5-6.15-2.34-12.07-4.59-20-5-7.28-.38-12.82.98-17,2-6.79,1.66-12.2,4.03-16,6-2.76-.25-12.07-1.43-18-9-2.39-3.05-3.38-6.05-4-8-2.66-8.33-1.19-15.88,0-20,11.33,4.32,29.36,9.65,52,10,23.58.36,42.39-4.82,54-9,.64,8.48-.78,14.99-2,19Z"/><path class="cls-2" d="m65.91,127.63c-1.84-.43-11.24-2.61-16.41-7.12-7.06-6.16-8.45-18.59-5-31,11.33,4.32,29.36,9.65,52,10,23.58.36,42.39-4.82,54-9,.77,6.24,1.87,22.07-8,32-5.04,5.07-11.67,6.74-12.35,6.92"/><path class="cls-2" d="m94.5,99.51c1.6-10.92,2.54-25.77,0-43-1.61-10.91-4.26-20.32-7-28,2.85,3.15,15.41,16.35,36,18,15.17,1.22,26.58-4.48,31-7,.52,5.31.49,14.63-5,23-9.38,14.31-31.01,20.24-53,13"/><path class="cls-2" d="m7.19,116.51c6.74-.48,9.5-4.39,16.69-6,4.47-1,11.28-1.25,20.62,3"/><path class="cls-2" d="m9.5,121.51c17.13,8.16,30.98,9.51,40.94,9,22.85-1.18,29-12.38,49.62-11,20.57,1.38,24.47,13.2,38.46,10,11.39-2.61,14.79-11.4,32.25-15,4.12-.85,7.42-.93,9.92-1,10.99-.29,19.72,2.17,24.81,4"/><path class="cls-2" d="m149.5,108.9c10.84-5.93,19.39-6.69,25-6.4,12.66.66,18.88,7.16,33,7.01"/><path class="cls-4" d="m20.94,127.53c1.51,1.16,2.26,2.71,2.26,4.66v3.84h-6.8v-3.84H6.8v4.4h8.04c2.56,0,4.59.58,6.1,1.74,1.51,1.16,2.26,2.71,2.26,4.66v4.4c0,1.95-.75,3.5-2.26,4.66-1.51,1.16-3.54,1.74-6.1,1.74h-6.48c-2.56,0-4.59-.58-6.1-1.74-1.51-1.16-2.26-2.71-2.26-4.66v-3.84h6.8v3.84h9.6v-4.4h-8.04c-2.56,0-4.59-.58-6.1-1.74-1.51-1.16-2.26-2.71-2.26-4.66v-4.4c0-1.95.75-3.5,2.26-4.66,1.51-1.16,3.54-1.74,6.1-1.74h6.48c2.56,0,4.59.58,6.1,1.74Z"/><path class="cls-4" d="m32.8,125.79h10.4l7.2,28h-6.8l-2.28-8.8h-6.64l-2.28,8.8h-6.8l7.2-28Zm6.88,12.8l-1.68-6.56-1.68,6.56h3.36Z"/><path class="cls-4" d="m54,125.79h6.8v28h-6.8v-28Z"/><path class="cls-4" d="m68.66,152.07c-1.51-1.15-2.26-2.71-2.26-4.68v-21.6h6.8v21.6h16v6.4h-14.4c-2.59,0-4.63-.57-6.14-1.72Z"/><path class="cls-4" d="m93.6,125.79h10.4l5.2,21.4,5.2-21.4h10.4v28h-6.8v-14.84l-3.6,14.84h-10.4l-3.6-14.84v14.84h-6.8v-28Z"/><path class="cls-4" d="m132.06,127.51c1.51-1.15,3.55-1.72,6.14-1.72h6.44c2.56,0,4.59.58,6.1,1.74,1.51,1.16,2.26,2.71,2.26,4.66v15.2c0,1.95-.75,3.5-2.26,4.66-1.51,1.16-3.54,1.74-6.1,1.74h-6.44c-2.59,0-4.63-.57-6.14-1.72-1.51-1.15-2.26-2.71-2.26-4.68v-15.2c0-1.97.75-3.53,2.26-4.68Zm14.14,19.88v-15.2h-9.6v15.2h9.6Z"/><path class="cls-4" d="m158,125.79h14.44c2.56,0,4.59.58,6.1,1.74,1.51,1.16,2.26,2.71,2.26,4.66v6.4c0,1.52-.46,2.81-1.38,3.86-.92,1.05-2.21,1.78-3.86,2.18l5.24,9.16h-7.84l-5.04-8.8h-3.12v8.8h-6.8v-28Zm16,12.8v-6.4h-9.2v6.4h9.2Z"/><path class="cls-4" d="m186.4,153.79v-28h14.44c2.56,0,4.59.58,6.1,1.74,1.51,1.16,2.26,2.71,2.26,4.66v3.84h-6.8v-3.84h-9.2v6.4h5.16v6.4h-5.16v2.4h16v6.4h-22.8Z"/><path class="cls-2" d="m151.5,95.51c11.25-3.67,15.74,2.75,29,2,14.95-.85,22.68-9.76,27-6"/><path class="cls-2" d="m6.28,94.02c5.52,5.64,10.4,7.29,14.22,7.49,10.18.54,16.76-8.98,23-6"/><path class="cls-3" d="m9.94,126.07c-.77-2.64-3.46-12.46-3.44-25.61.06-39.23,24.25-65.4,28-69.34C62.05,2.22,97.06,1.92,107.25,2.01c9.09.08,45.27,1,73.25,31.23,6.02,6.5,28.14,31.28,27.5,67.22-.22,12.45-3.1,22.51-5.5,29.04"/></g></svg>